<svg width="512px" height="512px" enable-background="new 0 0 285.255 285.255" version="1.1" viewBox="0 0 285.255 285.255" xml:space="preserve" xmlns="http://www.w3.org/2000/svg">
<g fill="#3464dc">
	<path d="m205.92 24.039c-3.065-1.265-6.571 0.193-7.835 3.256-1.265 3.063 0.193 6.571 3.256 7.835 43.688 18.036 71.917 60.231 71.917 107.5 0 64.098-52.147 116.24-116.25 116.24-3.314 0-6 2.687-6 6s2.686 6 6 6c70.715 0 128.25-57.53 128.25-128.24 0-52.142-31.142-98.691-79.338-118.59z"/>
	<path d="m157.01 225.93c45.934 0 83.304-37.37 83.304-83.303s-37.37-83.303-83.304-83.303c-3.313 0-6 2.687-6 6 0 3.314 2.687 6 6 6 39.317 0 71.304 31.986 71.304 71.303s-31.987 71.303-71.304 71.303c-3.313 0-6 2.686-6 6s2.687 6 6 6z"/>
	<path d="m176.54 163.6c-2.424 2.258-2.559 6.055-0.3 8.479 1.182 1.269 2.784 1.911 4.392 1.911 1.464 0 2.932-0.533 4.088-1.61 8.231-7.667 12.952-18.513 12.952-29.757 0-22.419-18.24-40.659-40.66-40.659-3.313 0-6 2.687-6 6s2.687 6 6 6c15.803 0 28.66 12.856 28.66 28.659-1e-3 8.042-3.244 15.491-9.132 20.977z"/>
	<path d="m130.79 14.84c-2.241-0.928-4.821-0.417-6.538 1.296l-63.408 63.312h-54.844c-3.313 0-6 2.687-6 6v114.36c0 3.313 2.687 6 6 6h57.326c3.313 0 6-2.687 6-6s-2.687-6-6-6h-51.326v-102.36h51.326c1.59 0 3.114-0.631 4.239-1.754l54.926-54.842v215.55l-29.627-29.583c-2.346-2.341-6.145-2.339-8.485 7e-3 -2.341 2.345-2.338 6.144 7e-3 8.485l39.867 39.806c1.147 1.146 2.681 1.754 4.241 1.754 0.773 0 1.554-0.149 2.297-0.458 2.241-0.929 3.702-3.117 3.702-5.542v-244.49c-2e-3 -2.426-1.463-4.613-3.703-5.542z"/>
</g>
</svg>
