<?xml version="1.0" encoding="UTF-8" standalone="no"?>
<!DOCTYPE svg PUBLIC "-//W3C//DTD SVG 1.1//EN" "http://www.w3.org/Graphics/SVG/1.1/DTD/svg11.dtd">
<svg width="100%" height="100%" viewBox="0 0 40 40" version="1.1" xmlns="http://www.w3.org/2000/svg" xmlns:xlink="http://www.w3.org/1999/xlink" xml:space="preserve" xmlns:serif="http://www.serif.com/" style="fill-rule:evenodd;clip-rule:evenodd;stroke-linejoin:round;stroke-miterlimit:1.41421;">
    <g transform="matrix(1,0,0,1,-7473.48,-4607.22)">
        <g transform="matrix(1.23791,0,0,3.96715,6944.32,2185)">
            <g transform="matrix(0.137006,0,0,0.0427514,427.462,610.558)">
                <path d="M201.324,34.722C155.34,-11.262 80.52,-11.262 34.535,34.722C18.402,50.855 7.367,71.124 2.621,93.339C-2,114.968 -0.488,137.378 6.996,158.144C7.895,160.636 10.648,161.929 13.141,161.03C15.633,160.132 16.926,157.382 16.027,154.886C9.152,135.808 7.762,115.218 12.008,95.343C16.363,74.945 26.504,56.331 41.324,41.507C83.562,-0.731 152.293,-0.731 194.535,41.507C214.652,61.624 225.914,88.366 226.242,116.804C226.574,145.191 215.992,172.144 196.457,192.698C196.223,192.941 195.996,193.187 195.766,193.433C195.363,193.866 194.957,194.3 194.535,194.722C152.293,236.96 83.562,236.96 41.324,194.722C41.098,194.495 40.879,194.269 40.664,194.038C40.652,193.597 40.641,193.159 40.641,192.73C40.641,191.761 40.66,190.8 40.695,189.839C40.707,189.519 40.73,189.202 40.746,188.882C40.777,188.245 40.809,187.605 40.855,186.972C40.883,186.593 40.922,186.218 40.957,185.843C41.008,185.269 41.055,184.698 41.117,184.128C41.16,183.73 41.219,183.331 41.27,182.929C41.336,182.39 41.402,181.847 41.48,181.312C41.543,180.902 41.613,180.495 41.684,180.089C41.766,179.566 41.852,179.038 41.949,178.519C42.023,178.109 42.109,177.698 42.195,177.288C42.297,176.777 42.398,176.265 42.512,175.757C42.605,175.347 42.707,174.937 42.805,174.527C42.926,174.027 43.043,173.527 43.172,173.03C43.281,172.62 43.398,172.21 43.512,171.804C43.648,171.312 43.785,170.823 43.93,170.335C44.055,169.929 44.184,169.523 44.316,169.12C44.469,168.64 44.621,168.155 44.785,167.679C44.922,167.277 45.066,166.878 45.211,166.476C45.379,166.003 45.551,165.53 45.73,165.062C45.883,164.663 46.039,164.269 46.199,163.874C46.387,163.409 46.574,162.945 46.77,162.484C46.934,162.093 47.105,161.702 47.277,161.316C47.48,160.859 47.688,160.402 47.898,159.952C48.078,159.566 48.262,159.183 48.449,158.8C48.668,158.355 48.887,157.905 49.117,157.46C49.309,157.085 49.504,156.71 49.703,156.339C49.938,155.898 50.176,155.456 50.422,155.019C50.629,154.652 50.836,154.284 51.047,153.921C51.297,153.488 51.555,153.058 51.812,152.628C52.031,152.269 52.254,151.909 52.477,151.554C52.742,151.128 53.016,150.706 53.289,150.288C53.52,149.937 53.754,149.589 53.988,149.241C54.27,148.823 54.559,148.413 54.852,148.003C55.094,147.663 55.336,147.32 55.582,146.984C55.883,146.577 56.188,146.175 56.492,145.777C56.746,145.445 57,145.113 57.258,144.784C57.574,144.39 57.895,143.995 58.219,143.605C58.48,143.284 58.742,142.964 59.012,142.648C59.344,142.261 59.684,141.874 60.02,141.495C60.293,141.187 60.566,140.874 60.844,140.57C61.191,140.191 61.547,139.82 61.902,139.448C62.184,139.152 62.465,138.851 62.754,138.558C63.117,138.191 63.492,137.827 63.863,137.464C64.152,137.179 64.441,136.894 64.738,136.613C65.121,136.253 65.512,135.898 65.902,135.546C66.199,135.277 66.492,135.003 66.793,134.738C67.195,134.382 67.609,134.038 68.02,133.691C68.32,133.437 68.617,133.179 68.922,132.933C69.348,132.585 69.781,132.245 70.215,131.909C70.52,131.671 70.816,131.429 71.121,131.198C71.578,130.851 72.047,130.519 72.512,130.183C72.805,129.968 73.094,129.753 73.391,129.542C73.902,129.183 74.43,128.835 74.953,128.484C75.211,128.312 75.465,128.132 75.723,127.964C76.406,127.519 77.102,127.089 77.801,126.667C77.91,126.601 78.016,126.53 78.125,126.464C78.938,125.98 79.758,125.511 80.586,125.054C80.871,124.898 81.164,124.749 81.449,124.597C82,124.304 82.551,124.007 83.113,123.726C83.473,123.542 83.84,123.374 84.203,123.198C84.66,122.976 85.117,122.753 85.578,122.538C94.277,130.851 105.883,135.554 117.93,135.554C129.977,135.554 141.582,130.847 150.285,122.538C167.266,130.398 181.168,144.499 188.715,161.652C189.781,164.077 192.613,165.179 195.039,164.113C197.465,163.042 198.566,160.21 197.5,157.784C189.246,139.027 174.875,124.034 156.684,114.984C161.961,107.241 164.816,98.101 164.816,88.667C164.816,62.816 143.785,41.78 117.93,41.78C115.281,41.78 113.129,43.929 113.129,46.581C113.129,49.23 115.281,51.382 117.93,51.382C138.492,51.382 155.219,68.109 155.219,88.667C155.219,97.863 151.801,106.715 145.598,113.593L145.594,113.597C138.512,121.452 128.429,125.956 117.93,125.956C107.43,125.956 97.348,121.452 90.266,113.597L90.262,113.593C84.059,106.711 80.641,97.863 80.641,88.667C80.641,78.632 84.57,69.218 91.703,62.163C93.59,60.296 93.605,57.257 91.742,55.374C89.875,53.488 86.836,53.472 84.953,55.335C75.984,64.21 71.043,76.046 71.043,88.667C71.043,98.089 73.891,107.226 79.16,114.964C79.113,114.988 79.066,115.011 79.02,115.034C78.645,115.222 78.281,115.421 77.906,115.613C77.34,115.905 76.77,116.198 76.207,116.507C75.812,116.722 75.422,116.948 75.031,117.171C74.508,117.468 73.98,117.761 73.465,118.07C73.062,118.308 72.668,118.554 72.273,118.796C71.777,119.105 71.281,119.409 70.793,119.722C70.395,119.98 70,120.241 69.605,120.507C69.133,120.823 68.66,121.14 68.191,121.464C67.797,121.738 67.41,122.019 67.023,122.296C66.566,122.624 66.113,122.956 65.664,123.292C65.277,123.581 64.898,123.874 64.519,124.167C64.078,124.511 63.641,124.855 63.211,125.202C62.836,125.507 62.465,125.812 62.094,126.12C61.672,126.476 61.25,126.835 60.832,127.198C60.469,127.511 60.109,127.827 59.754,128.148C59.34,128.519 58.934,128.894 58.531,129.273C58.18,129.597 57.832,129.925 57.488,130.257C57.09,130.64 56.695,131.034 56.305,131.425C55.969,131.761 55.637,132.097 55.309,132.437C54.922,132.839 54.539,133.245 54.16,133.655C53.84,133.999 53.523,134.339 53.211,134.687C52.828,135.109 52.461,135.542 52.09,135.972C51.789,136.316 51.488,136.659 51.195,137.007C50.82,137.46 50.457,137.917 50.09,138.374C49.816,138.718 49.535,139.054 49.27,139.398C48.883,139.894 48.512,140.398 48.137,140.902C47.902,141.222 47.66,141.53 47.43,141.851C46.957,142.507 46.496,143.171 46.043,143.843C45.922,144.019 45.797,144.191 45.68,144.366C45.113,145.21 44.562,146.066 44.027,146.929C43.844,147.226 43.668,147.53 43.488,147.831C43.141,148.405 42.793,148.98 42.461,149.566C42.254,149.929 42.055,150.3 41.855,150.667C41.562,151.195 41.27,151.722 40.988,152.257C40.781,152.652 40.582,153.054 40.383,153.452C40.121,153.968 39.859,154.48 39.609,155.003C39.41,155.417 39.219,155.835 39.027,156.253C38.789,156.765 38.551,157.28 38.324,157.8C38.137,158.226 37.957,158.659 37.777,159.089C37.562,159.609 37.348,160.124 37.141,160.648C36.965,161.085 36.801,161.527 36.633,161.968C36.438,162.491 36.242,163.015 36.055,163.542C35.898,163.988 35.742,164.437 35.59,164.89C35.414,165.417 35.238,165.948 35.07,166.48C34.93,166.937 34.789,167.39 34.652,167.847C34.492,168.386 34.34,168.925 34.191,169.468C34.062,169.925 33.938,170.382 33.82,170.843C33.68,171.394 33.543,171.941 33.414,172.495C33.305,172.956 33.195,173.413 33.094,173.878C32.969,174.437 32.855,174.999 32.742,175.562C32.652,176.023 32.558,176.484 32.473,176.948C32.367,177.523 32.272,178.101 32.18,178.679C32.105,179.132 32.027,179.589 31.961,180.046C31.875,180.644 31.801,181.241 31.727,181.843C31.672,182.288 31.609,182.734 31.562,183.179C31.492,183.808 31.441,184.441 31.387,185.073C31.348,185.495 31.305,185.913 31.273,186.339C31.223,187.046 31.188,187.753 31.156,188.464C31.137,188.82 31.113,189.167 31.098,189.523C31.059,190.589 31.039,191.655 31.039,192.73C31.039,193.89 31.078,194.988 31.125,196.195C31.137,196.476 31.176,196.749 31.23,197.015C31.234,197.034 31.238,197.054 31.242,197.077C31.301,197.339 31.387,197.589 31.484,197.831C31.496,197.855 31.504,197.878 31.516,197.905C31.617,198.144 31.742,198.374 31.879,198.589C31.898,198.616 31.914,198.644 31.934,198.671C32.074,198.886 32.234,199.085 32.405,199.273C32.422,199.288 32.43,199.304 32.441,199.316L33.074,199.991C33.555,200.503 34.031,201.015 34.531,201.511C57.523,224.503 87.727,235.999 117.926,235.999C148.129,235.999 178.328,224.503 201.32,201.511C201.82,201.015 202.297,200.503 202.777,199.991L203.41,199.316C224.684,176.941 236.199,147.601 235.84,116.698C235.48,85.734 223.223,56.62 201.324,34.722Z" style="fill:rgb(129,85,251);fill-rule:nonzero;"/>
            </g>
        </g>
    </g>
</svg>
