<?xml version="1.0" encoding="UTF-8" standalone="no"?>
<!DOCTYPE svg PUBLIC "-//W3C//DTD SVG 1.1//EN" "http://www.w3.org/Graphics/SVG/1.1/DTD/svg11.dtd">
<svg width="100%" height="100%" viewBox="0 0 40 37" version="1.1" xmlns="http://www.w3.org/2000/svg" xmlns:xlink="http://www.w3.org/1999/xlink" xml:space="preserve" xmlns:serif="http://www.serif.com/" style="fill-rule:evenodd;clip-rule:evenodd;stroke-linejoin:round;stroke-miterlimit:1.41421;">
    <g transform="matrix(1,0,0,1,-8267.27,-4608.87)">
        <g transform="matrix(1.23791,0,0,3.96715,6944.32,2185)">
            <g transform="matrix(0.458332,0,0,0.143018,609.738,359.172)">
                <path d="M1062.38,1770.17C1056.28,1764.06 1048.15,1760.7 1039.52,1760.7C1030.73,1760.7 1022.51,1764.17 1016.37,1770.46C1015.71,1771.14 1015.72,1772.25 1016.4,1772.93C1017.08,1773.59 1018.19,1773.58 1018.87,1772.9C1024.35,1767.28 1031.67,1764.19 1039.52,1764.19C1055.43,1764.18 1068.37,1777.12 1068.37,1793.03C1068.37,1808.94 1055.43,1821.88 1039.52,1821.88C1023.61,1821.88 1010.67,1808.94 1010.67,1793.03L1010.67,1792.67L1013.54,1795.54C1013.88,1795.88 1014.33,1796.05 1014.78,1796.05C1015.23,1796.05 1015.66,1795.88 1016.01,1795.54C1016.69,1794.86 1016.69,1793.76 1016.01,1793.08L1010.18,1787.23C1009.5,1786.55 1008.39,1786.55 1007.71,1787.23L1001.87,1793.08C1001.19,1793.76 1001.19,1794.86 1001.87,1795.54C1002.2,1795.88 1002.65,1796.05 1003.1,1796.05C1003.55,1796.05 1003.98,1795.88 1004.33,1795.54L1007.21,1792.67L1007.21,1793.03C1007.21,1801.66 1010.57,1809.79 1016.68,1815.89C1022.78,1822 1030.91,1825.36 1039.54,1825.36C1048.17,1825.36 1056.29,1822 1062.4,1815.89C1068.5,1809.79 1071.86,1801.66 1071.86,1793.03C1071.86,1784.4 1068.49,1776.28 1062.38,1770.17ZM1029.27,1789.43L1029.27,1784.49C1029.27,1778.83 1033.87,1774.23 1039.52,1774.23C1045.18,1774.23 1049.79,1778.85 1049.79,1784.5L1049.79,1789.45L1052.98,1789.45C1053.94,1789.45 1054.72,1790.23 1054.72,1791.19L1054.72,1808.54C1054.72,1809.5 1053.94,1810.28 1052.98,1810.28L1026.08,1810.28C1025.12,1810.28 1024.34,1809.5 1024.34,1808.54L1024.34,1791.17C1024.34,1790.22 1025.12,1789.43 1026.08,1789.43L1029.27,1789.43ZM1051.24,1806.8L1051.24,1792.91L1027.82,1792.91L1027.82,1806.8L1051.24,1806.8ZM1046.3,1789.45L1046.3,1784.5C1046.3,1780.77 1043.25,1777.73 1039.52,1777.73C1035.8,1777.73 1032.75,1780.76 1032.75,1784.5L1032.75,1789.45L1046.3,1789.45Z" style="fill:rgb(129,85,251);"/>
            </g>
        </g>
    </g>
</svg>
