<?xml version="1.0" encoding="UTF-8" standalone="no"?>
<!DOCTYPE svg PUBLIC "-//W3C//DTD SVG 1.1//EN" "http://www.w3.org/Graphics/SVG/1.1/DTD/svg11.dtd">
<svg width="100%" height="100%" viewBox="0 0 185 29" version="1.1" xmlns="http://www.w3.org/2000/svg" xmlns:xlink="http://www.w3.org/1999/xlink" xml:space="preserve" xmlns:serif="http://www.serif.com/" style="fill-rule:evenodd;clip-rule:evenodd;stroke-linejoin:round;stroke-miterlimit:1.41421;">
    <g transform="matrix(1,0,0,1,-7298.93,-2204.79)">
        <g transform="matrix(0.155394,0,0,0.155394,7298.93,2204.72)">
            <path d="M36.344,0.477L36.324,0.477C34.078,0.477 31.965,1.352 30.367,2.946C28.754,4.555 27.867,6.699 27.867,8.981L27.867,136.473C27.867,141.149 31.684,144.961 36.379,144.973C56.168,145.02 89.328,149.145 112.199,173.082L112.199,39.657C112.199,38.071 111.797,36.582 111.031,35.352C92.258,5.117 56.18,0.524 36.344,0.477Z" style="fill:rgb(92,231,157);fill-rule:nonzero;"/>
        </g>
        <g transform="matrix(0.155394,0,0,0.155394,7298.93,2204.72)">
            <path d="M209.734,136.473L209.734,8.981C209.734,6.699 208.844,4.555 207.23,2.946C205.637,1.352 203.52,0.477 201.273,0.477L201.254,0.477C181.422,0.524 145.344,5.117 126.57,35.352C125.805,36.582 125.402,38.071 125.402,39.657L125.402,173.078C148.273,149.145 181.43,145.02 201.223,144.973C205.914,144.957 209.734,141.145 209.734,136.473Z" style="fill:rgb(92,231,157);fill-rule:nonzero;"/>
        </g>
        <g transform="matrix(0.155394,0,0,0.155394,7298.93,2204.72)">
            <path d="M229.098,29.879L222.934,29.879L222.934,136.473C222.934,148.41 213.207,158.141 201.254,158.172C184.465,158.211 156.789,161.496 137.188,180.047C171.09,171.746 206.828,177.141 227.195,181.785C229.738,182.364 232.367,181.766 234.402,180.141C236.434,178.52 237.598,176.098 237.598,173.5L237.598,38.379C237.602,33.692 233.785,29.879 229.098,29.879Z" style="fill:rgb(92,231,157);fill-rule:nonzero;"/>
        </g>
        <g transform="matrix(0.155394,0,0,0.155394,7298.93,2204.72)">
            <path d="M14.664,136.473L14.664,29.879L8.5,29.879C3.812,29.879 0,33.692 0,38.379L0,173.496C0,176.098 1.164,178.52 3.195,180.137C5.23,181.762 7.855,182.364 10.402,181.782C30.773,177.141 66.512,171.742 100.414,180.043C80.812,161.492 53.133,158.211 36.348,158.172C24.391,158.141 14.664,148.41 14.664,136.473Z" style="fill:rgb(92,231,157);fill-rule:nonzero;"/>
        </g>
        <g transform="matrix(1.23791,0,0,3.96715,6944.32,2185)">
            <g transform="matrix(1.54292,0,0,0.481453,-277.426,-143.914)">
                <text x="390.923px" y="322.033px" style="font-family:'ArialMT', 'Arial', sans-serif;font-size:13.991px;fill:white;">SUMMAR<tspan x="452.852px " y="322.033px ">Y</tspan></text>
            </g>
        </g>
    </g>
</svg>
