<?xml version="1.0" encoding="UTF-8" standalone="no"?>
<!DOCTYPE svg PUBLIC "-//W3C//DTD SVG 1.1//EN" "http://www.w3.org/Graphics/SVG/1.1/DTD/svg11.dtd">
<svg width="100%" height="100%" viewBox="0 0 40 26" version="1.1" xmlns="http://www.w3.org/2000/svg" xmlns:xlink="http://www.w3.org/1999/xlink" xml:space="preserve" xmlns:serif="http://www.serif.com/" style="fill-rule:evenodd;clip-rule:evenodd;stroke-linejoin:round;stroke-miterlimit:1.41421;">
    <g transform="matrix(1,0,0,1,-8245.43,-5313.57)">
        <g transform="matrix(1.23791,0,0,3.96715,6944.32,2185)">
            <g transform="matrix(0.564104,0,0,0.176023,1051.06,788.548)">
                <path d="M14.289,21.208C13.81,21.208 13.685,20.843 13.685,20.625C13.685,20.203 13.914,19.695 15.045,19.695C15.309,19.696 15.337,19.723 15.381,19.731C15.411,19.991 15.219,21.208 14.289,21.208ZM15.051,16.27C13.993,16.27 13.182,16.61 13.182,16.61L12.958,17.94C12.958,17.94 13.627,17.668 14.64,17.668C15.215,17.668 15.635,17.732 15.635,18.199C15.635,18.483 15.584,18.588 15.584,18.588C15.584,18.588 15.131,18.551 14.921,18.551C13.586,18.551 12.184,19.119 12.184,20.838C12.184,22.192 13.103,22.501 13.674,22.501C14.763,22.501 15.233,21.795 15.257,21.793L15.206,22.383L16.565,22.383L17.171,18.133C17.17,16.328 15.597,16.27 15.051,16.27Z" style="fill:rgb(129,85,251);fill-rule:nonzero;"/>
                <path d="M19.959,17.695C20.176,17.695 21.013,17.764 21.013,17.764L21.208,16.402C21.208,16.402 20.666,16.281 19.784,16.281C18.642,16.281 17.484,16.737 17.484,18.296C17.484,20.064 19.416,19.884 19.416,20.63C19.416,21.126 18.876,21.167 18.46,21.167C17.739,21.167 17.091,20.921 17.089,20.931L16.883,22.282C16.92,22.292 17.32,22.47 18.615,22.47C18.962,22.47 20.949,22.56 20.949,20.509C20.949,18.591 19.11,18.97 19.11,18.199C19.11,17.815 19.409,17.695 19.959,17.695Z" style="fill:rgb(129,85,251);fill-rule:nonzero;"/>
                <path d="M23.206,17.869L24.023,17.869L24.22,16.417L23.45,16.417L23.607,15.517L22.064,15.517C22.03,15.55 21.153,20.593 21.153,21.205C21.153,22.116 21.664,22.52 22.383,22.513C22.946,22.509 23.385,22.353 23.54,22.31L23.733,20.998C23.627,20.998 23.472,21.044 23.335,21.044C22.798,21.044 22.739,20.757 22.773,20.546L23.206,17.869Z" style="fill:rgb(129,85,251);fill-rule:nonzero;"/>
                <path d="M29.673,9.445L26.919,9.445C26.549,9.945 26.201,10.477 25.886,10.997L30.799,10.997C30.458,10.455 30.081,9.937 29.673,9.445Z" style="fill:rgb(129,85,251);fill-rule:nonzero;"/>
                <path d="M50.979,26.721L50.879,26.721L50.879,26.569L50.973,26.569C51.012,26.569 51.038,26.572 51.053,26.578C51.069,26.584 51.079,26.593 51.088,26.604C51.096,26.616 51.1,26.629 51.1,26.643C51.1,26.666 51.092,26.686 51.075,26.7C51.058,26.713 51.025,26.721 50.979,26.721ZM51.161,26.903C51.131,26.858 51.106,26.824 51.086,26.803C51.075,26.793 51.061,26.782 51.043,26.777C51.086,26.774 51.122,26.758 51.148,26.731C51.173,26.704 51.187,26.672 51.187,26.635C51.187,26.609 51.179,26.584 51.164,26.561C51.149,26.538 51.127,26.521 51.1,26.512C51.075,26.502 51.032,26.497 50.973,26.497L50.799,26.497L50.799,27.002L50.881,27.002L50.881,26.788L50.928,26.788C50.956,26.788 50.979,26.794 50.992,26.806C51.013,26.823 51.043,26.862 51.078,26.923L51.122,27.003L51.223,27.003L51.161,26.903Z" style="fill:rgb(129,85,251);fill-rule:nonzero;"/>
                <path d="M31.634,12.52L25.027,12.52C24.605,13.319 24.325,13.923 24.246,14.073L32.259,14.073C32.078,13.539 31.871,13.022 31.634,12.52Z" style="fill:rgb(129,85,251);fill-rule:nonzero;"/>
                <path d="M10.293,15.041L8.772,19.551L8.693,15.041L6.441,15.041L5.207,22.39L6.696,22.39L7.635,16.85L7.773,22.39L8.836,22.39L10.819,16.85L9.94,22.39L11.52,22.39L12.737,15.041L10.293,15.041Z" style="fill:rgb(129,85,251);fill-rule:nonzero;"/>
                <path d="M39.309,21.208C38.829,21.208 38.705,20.843 38.705,20.625C38.705,20.203 38.934,19.695 40.065,19.695C40.328,19.696 40.356,19.723 40.401,19.731C40.43,19.991 40.237,21.208 39.309,21.208ZM40.069,16.27C39.009,16.27 38.199,16.61 38.199,16.61L37.974,17.94C37.974,17.94 38.644,17.668 39.656,17.668C40.231,17.668 40.652,17.732 40.652,18.199C40.652,18.483 40.599,18.588 40.599,18.588C40.599,18.588 40.147,18.551 39.935,18.551C38.601,18.551 37.2,19.119 37.2,20.838C37.2,22.192 38.12,22.501 38.69,22.501C39.778,22.501 40.248,21.795 40.273,21.793L40.222,22.383L41.58,22.383L42.186,18.133C42.189,16.328 40.615,16.27 40.069,16.27Z" style="fill:rgb(129,85,251);fill-rule:nonzero;"/>
                <path d="M51.145,22.14C51.111,22.202 51.063,22.249 51,22.286C50.938,22.32 50.874,22.338 50.807,22.338C50.739,22.338 50.674,22.32 50.613,22.286C50.55,22.251 50.503,22.203 50.467,22.14C50.431,22.077 50.415,22.013 50.415,21.946C50.415,21.879 50.432,21.814 50.469,21.751C50.504,21.689 50.551,21.641 50.615,21.606C50.679,21.571 50.742,21.556 50.807,21.556C50.872,21.556 50.936,21.572 50.997,21.606C51.061,21.641 51.108,21.688 51.143,21.751C51.178,21.814 51.197,21.879 51.197,21.946C51.197,22.013 51.18,22.078 51.145,22.14ZM51.21,21.713C51.169,21.637 51.109,21.579 51.034,21.539C50.96,21.498 50.884,21.478 50.804,21.478C50.727,21.479 50.65,21.499 50.574,21.539C50.499,21.579 50.441,21.637 50.399,21.713C50.357,21.788 50.336,21.866 50.336,21.947C50.336,22.028 50.357,22.105 50.399,22.179C50.44,22.253 50.498,22.312 50.572,22.354C50.647,22.395 50.724,22.416 50.804,22.416C50.886,22.416 50.964,22.395 51.037,22.354C51.111,22.312 51.169,22.253 51.21,22.179C51.253,22.105 51.272,22.028 51.272,21.947C51.272,21.864 51.252,21.786 51.21,21.713Z" style="fill:rgb(129,85,251);fill-rule:nonzero;"/>
                <path d="M50.783,21.921L50.684,21.921L50.684,21.769L50.776,21.769C50.816,21.769 50.842,21.772 50.858,21.777C50.871,21.784 50.883,21.791 50.891,21.804C50.9,21.817 50.904,21.828 50.904,21.845C50.904,21.867 50.895,21.886 50.88,21.9C50.861,21.916 50.83,21.921 50.783,21.921ZM50.963,22.106C50.934,22.059 50.908,22.026 50.889,22.006C50.877,21.995 50.864,21.986 50.846,21.98C50.889,21.977 50.924,21.961 50.95,21.934C50.975,21.908 50.99,21.874 50.99,21.838C50.99,21.813 50.982,21.787 50.966,21.764C50.95,21.742 50.929,21.725 50.904,21.715C50.879,21.705 50.835,21.7 50.776,21.7L50.6,21.7L50.6,22.204L50.682,22.204L50.682,21.99L50.729,21.99C50.758,21.99 50.781,21.996 50.795,22.007C50.816,22.025 50.844,22.063 50.881,22.126L50.924,22.205L51.025,22.205L50.963,22.106Z" style="fill:rgb(129,85,251);fill-rule:nonzero;"/>
                <path d="M45.313,16.343C44.622,16.343 44.109,17.286 44.109,17.286L44.247,16.419L42.809,16.419L41.846,22.401L43.43,22.401C43.881,19.845 43.963,17.772 45.034,18.151C45.223,17.163 45.405,16.78 45.61,16.363C45.61,16.364 45.514,16.343 45.313,16.343Z" style="fill:rgb(129,85,251);fill-rule:nonzero;"/>
                <path d="M47.336,20.979C46.78,20.979 46.52,20.513 46.52,19.781C46.52,18.584 47.057,17.795 47.736,17.795C48.29,17.796 48.575,18.177 48.575,19.075C48.575,19.89 48.172,20.979 47.336,20.979ZM49.293,15.049L48.96,17.114C48.96,17.114 48.38,16.311 47.47,16.311C46.055,16.312 44.877,18.017 44.877,19.975C44.877,21.24 45.506,22.479 46.79,22.479C47.715,22.479 48.227,21.834 48.227,21.834L48.16,22.385L49.661,22.385L50.841,15.046L49.293,15.049Z" style="fill:rgb(129,85,251);fill-rule:nonzero;"/>
                <path d="M52.457,18.699C52.459,26.704 45.973,33.196 37.967,33.198C34.223,33.199 30.809,31.78 28.237,29.449C25.665,31.776 22.258,33.194 18.52,33.194C10.519,33.194 4.025,26.701 4.025,18.699C4.025,10.729 10.468,4.255 18.427,4.203C18.458,4.203 18.489,4.203 18.52,4.203C22.258,4.203 25.666,5.621 28.238,7.948C30.809,5.62 34.219,4.201 37.96,4.2C45.966,4.197 52.457,10.686 52.459,18.692C52.457,18.694 52.457,18.695 52.457,18.699ZM51.409,26.976C51.367,27.052 51.31,27.11 51.236,27.151C51.162,27.192 51.084,27.213 51.004,27.213C50.922,27.213 50.844,27.192 50.77,27.151C50.697,27.11 50.639,27.052 50.596,26.976C50.555,26.903 50.534,26.825 50.534,26.744C50.534,26.663 50.555,26.586 50.597,26.51C50.638,26.434 50.698,26.377 50.772,26.336C50.847,26.297 50.923,26.276 51.003,26.276C51.082,26.276 51.158,26.297 51.232,26.336C51.307,26.377 51.366,26.434 51.407,26.51C51.449,26.586 51.469,26.664 51.469,26.744C51.469,26.824 51.451,26.905 51.409,26.976ZM55.026,0.397L1.454,0.397C0.65,0.397 0,1.048 0,1.851L0,35.546C0,36.349 0.65,37 1.454,37L55.026,37C55.83,37 56.48,36.349 56.48,35.546L56.48,1.851C56.48,1.048 55.83,0.397 55.026,0.397Z" style="fill:rgb(129,85,251);fill-rule:nonzero;"/>
                <path d="M26.753,27.864C27.212,28.426 27.698,28.962 28.235,29.448C28.247,29.437 28.26,29.427 28.272,29.417C28.272,29.417 28.271,29.417 28.271,29.416L28.274,29.416C28.802,28.935 29.295,28.417 29.746,27.864L26.753,27.864Z" style="fill:rgb(129,85,251);fill-rule:nonzero;"/>
                <path d="M26.735,17.629C27.606,17.629 27.445,18.608 27.445,18.686L25.732,18.686C25.732,18.585 25.894,17.629 26.735,17.629ZM28.727,19.908C28.727,19.908 28.93,18.908 28.93,18.501C28.93,17.484 28.424,16.244 26.73,16.244C25.178,16.245 24.029,17.917 24.029,19.807C24.029,21.988 25.468,22.506 26.695,22.506C27.827,22.506 28.325,22.252 28.325,22.252L28.597,20.764C28.597,20.764 27.736,21.144 26.958,21.144C25.301,21.144 25.591,19.908 25.591,19.908L28.727,19.908Z" style="fill:rgb(129,85,251);fill-rule:nonzero;"/>
                <path d="M35.965,16.449C36.75,16.449 37.381,16.89 37.381,16.89L37.633,15.255C37.633,15.255 36.699,14.877 35.895,14.877C34.114,14.877 32.381,16.423 32.381,19.326C32.381,21.251 33.316,22.522 35.158,22.522C35.678,22.522 36.508,22.311 36.508,22.311L36.784,20.627C36.784,20.627 36.028,21.006 35.508,21.006C34.412,21.005 33.973,20.169 33.973,19.273C33.973,17.45 34.915,16.449 35.965,16.449Z" style="fill:rgb(129,85,251);fill-rule:nonzero;"/>
                <path d="M24.818,24.819C25.069,25.358 25.361,25.871 25.674,26.371L30.817,26.371C31.129,25.873 31.41,25.355 31.661,24.819L24.818,24.819Z" style="fill:rgb(129,85,251);fill-rule:nonzero;"/>
                <path d="M32.353,16.345C31.662,16.345 31.15,17.288 31.15,17.288L31.289,16.421L29.852,16.421L28.889,22.403L30.473,22.403C30.922,19.848 31.006,17.774 32.077,18.153C32.265,17.164 32.446,16.781 32.651,16.363C32.651,16.363 32.555,16.343 32.353,16.345Z" style="fill:rgb(129,85,251);fill-rule:nonzero;"/>
            </g>
        </g>
    </g>
</svg>
