<?xml version="1.0" encoding="UTF-8" standalone="no"?>
<!DOCTYPE svg PUBLIC "-//W3C//DTD SVG 1.1//EN" "http://www.w3.org/Graphics/SVG/1.1/DTD/svg11.dtd">
<svg width="100%" height="100%" viewBox="0 0 17 18" version="1.1" xmlns="http://www.w3.org/2000/svg" xmlns:xlink="http://www.w3.org/1999/xlink" xml:space="preserve" xmlns:serif="http://www.serif.com/" style="fill-rule:evenodd;clip-rule:evenodd;stroke-linejoin:round;stroke-miterlimit:1.41421;">
    <g transform="matrix(1,0,0,1,-7547.44,-2209.05)">
        <g transform="matrix(1.23791,0,0,3.96715,6944.32,2185)">
            <g transform="matrix(0.333713,0,0,0.104132,487.207,5.99601)">
                <path d="M40.578,41.647L28.691,29.283C31.723,26.24 33.602,22.049 33.602,17.428C33.602,8.162 26.062,0.627 16.801,0.627C7.535,0.627 0,8.162 0,17.428C0,26.69 7.535,34.229 16.801,34.229C20.867,34.229 24.598,32.772 27.508,30.362L39.422,42.756C39.578,42.92 39.789,42.998 40,42.998C40.199,42.998 40.398,42.924 40.555,42.776C40.871,42.471 40.883,41.963 40.578,41.647ZM16.801,32.627C8.418,32.627 1.602,25.807 1.602,17.428C1.602,9.045 8.418,2.229 16.801,2.229C25.18,2.229 32,9.045 32,17.428C32,25.807 25.18,32.627 16.801,32.627Z" style="fill:rgb(52,100,220);fill-rule:nonzero;"/>
            </g>
        </g>
    </g>
</svg>
