<?xml version="1.0" encoding="UTF-8" standalone="no"?>
<!DOCTYPE svg PUBLIC "-//W3C//DTD SVG 1.1//EN" "http://www.w3.org/Graphics/SVG/1.1/DTD/svg11.dtd">
<svg width="100%" height="100%" viewBox="0 0 40 40" version="1.1" xmlns="http://www.w3.org/2000/svg" xmlns:xlink="http://www.w3.org/1999/xlink" xml:space="preserve" xmlns:serif="http://www.serif.com/" style="fill-rule:evenodd;clip-rule:evenodd;stroke-linejoin:round;stroke-miterlimit:1.41421;">
    <g transform="matrix(1,0,0,1,-7877.51,-4607.21)">
        <g transform="matrix(1.23791,0,0,3.96715,6944.32,2185)">
            <g transform="matrix(0.458333,0,0,0.143018,472.858,359.172)">
                <path d="M648.31,1757.78C628.872,1757.78 613.059,1773.6 613.059,1793.03C613.059,1812.47 628.872,1828.28 648.31,1828.28C649.101,1828.28 649.744,1827.64 649.744,1826.85C649.744,1826.05 649.101,1825.41 648.31,1825.41C630.454,1825.41 615.929,1810.89 615.929,1793.03C615.929,1775.18 630.454,1760.65 648.31,1760.65C666.163,1760.65 680.689,1775.18 680.689,1793.03C680.689,1804.14 675.09,1814.36 665.709,1820.35C665.041,1820.77 664.846,1821.66 665.272,1822.33C665.698,1822.99 666.586,1823.19 667.254,1822.76C677.464,1816.24 683.559,1805.13 683.559,1793.03C683.559,1773.6 667.746,1757.78 648.31,1757.78ZM639.928,1784.58C640.717,1784.58 641.358,1785.22 641.362,1786.01C641.366,1786.8 640.726,1787.44 639.935,1787.45L628.836,1787.5C628.062,1787.5 627.805,1788.11 627.745,1788.3C627.684,1788.48 627.536,1789.13 628.159,1789.58L637.107,1796.15C638.502,1797.17 639.086,1798.97 638.558,1800.62L635.178,1811.19C634.942,1811.93 635.44,1812.36 635.598,1812.48C635.756,1812.59 636.322,1812.93 636.951,1812.48L645.96,1806C647.366,1804.98 649.255,1804.98 650.66,1806L659.669,1812.48C660.298,1812.93 660.863,1812.59 661.02,1812.48C661.179,1812.36 661.676,1811.93 661.441,1811.19L658.06,1800.62C657.532,1798.97 658.115,1797.17 659.511,1796.15L668.46,1789.58C669.083,1789.13 668.935,1788.48 668.874,1788.3C668.813,1788.11 668.557,1787.5 667.783,1787.5L656.685,1787.45C654.954,1787.44 653.427,1786.33 652.884,1784.69L649.406,1774.15C649.163,1773.41 648.506,1773.36 648.31,1773.36C648.114,1773.36 647.457,1773.41 647.214,1774.15L645.647,1778.9C645.399,1779.65 644.587,1780.06 643.834,1779.81C643.082,1779.56 642.674,1778.75 642.922,1778L644.49,1773.25C645.044,1771.57 646.543,1770.49 648.31,1770.49C650.077,1770.49 651.576,1771.57 652.129,1773.25L655.609,1783.79C655.764,1784.26 656.202,1784.58 656.698,1784.58L667.795,1784.63C669.563,1784.64 671.058,1785.73 671.603,1787.41C672.149,1789.09 671.582,1790.85 670.156,1791.9L661.208,1798.46C660.809,1798.76 660.641,1799.27 660.793,1799.74L664.175,1810.32C664.713,1812 664.136,1813.76 662.707,1814.8C661.277,1815.84 659.428,1815.84 657.993,1814.81L648.984,1808.32C648.581,1808.03 648.04,1808.03 647.637,1808.32L638.626,1814.81C637.911,1815.32 637.094,1815.58 636.276,1815.58C635.453,1815.58 634.629,1815.32 633.913,1814.8C632.483,1813.76 631.907,1812 632.445,1810.32L635.825,1799.74C635.977,1799.27 635.809,1798.76 635.409,1798.46L626.461,1791.9C625.037,1790.85 624.47,1789.09 625.015,1787.41C625.561,1785.73 627.056,1784.64 628.822,1784.63L639.921,1784.58L639.928,1784.58Z" style="fill:rgb(129,85,251);"/>
            </g>
        </g>
    </g>
</svg>
