<?xml version="1.0" encoding="UTF-8" standalone="no"?>
<!DOCTYPE svg PUBLIC "-//W3C//DTD SVG 1.1//EN" "http://www.w3.org/Graphics/SVG/1.1/DTD/svg11.dtd">
<svg width="100%" height="100%" viewBox="0 0 40 26" version="1.1" xmlns="http://www.w3.org/2000/svg" xmlns:xlink="http://www.w3.org/1999/xlink" xml:space="preserve" xmlns:serif="http://www.serif.com/" style="fill-rule:evenodd;clip-rule:evenodd;stroke-linejoin:round;stroke-miterlimit:1.41421;">
    <g transform="matrix(1,0,0,1,-8292.37,-5311.33)">
        <g transform="matrix(1.23791,0,0,3.96715,6944.32,2185)">
            <g transform="matrix(0.564646,0,0,0.176192,1088.97,787.984)">
                <path d="M48.549,25.854C48.549,25.854 48.194,24.214 48.076,23.716C47.51,23.716 43.542,23.71 43.096,23.71C42.945,24.095 42.279,25.854 42.279,25.854L38.196,25.854L43.969,12.779C44.379,11.85 45.074,11.595 46.006,11.595L49.01,11.595L52.157,25.853L48.549,25.854ZM31.699,26.062C29.956,26.044 28.277,25.699 27.367,25.3L27.914,22.107L28.415,22.334C29.692,22.867 30.519,23.083 32.076,23.083C33.193,23.083 34.39,22.646 34.401,21.69C34.408,21.065 33.9,20.619 32.386,19.919C30.91,19.237 28.956,18.093 28.98,16.044C29.001,13.271 31.709,11.336 35.552,11.336C37.058,11.336 38.265,11.646 39.035,11.935L38.51,15.028L38.159,14.863C37.443,14.575 36.522,14.297 35.249,14.317C33.727,14.317 33.021,14.951 33.021,15.544C33.013,16.212 33.845,16.652 35.205,17.314C37.448,18.332 38.485,19.567 38.471,21.19C38.441,24.15 35.788,26.062 31.699,26.062ZM24.933,25.848L21.045,25.848L23.476,11.58L27.366,11.58L24.933,25.848ZM11.667,25.838L8.185,13.942C10.688,15.544 12.82,18.086 13.571,19.855L13.977,21.324L17.785,11.595L21.905,11.595L15.782,25.835L11.667,25.838ZM4.373,11.458L10.401,11.458C11.214,11.489 11.869,11.748 12.095,12.617L13.406,18.922C12.118,15.624 9.014,12.88 4.323,11.744L4.373,11.458ZM55.026,0.397L1.454,0.397C0.65,0.397 0,1.048 0,1.851L0,35.546C0,36.349 0.65,37 1.454,37L55.026,37C55.83,37 56.48,36.349 56.48,35.546L56.48,1.851C56.48,1.048 55.83,0.397 55.026,0.397Z" style="fill:rgb(129,85,251);fill-rule:nonzero;"/>
                <path d="M46.542,16.673L46.28,15.443C46.082,15.98 45.741,16.843 45.763,16.805C45.763,16.805 44.534,19.972 44.214,20.793L47.443,20.793C47.287,20.078 46.542,16.673 46.542,16.673Z" style="fill:rgb(129,85,251);fill-rule:nonzero;"/>
            </g>
        </g>
    </g>
</svg>
