<svg width="512px" height="512px" enable-background="new 0 0 491.312 491.312" version="1.1" viewBox="0 0 491.312 491.312" xml:space="preserve" xmlns="http://www.w3.org/2000/svg">
		<path d="m273.94 401.37c-15.636-15.591-40.94-15.591-56.576 0-15.619 15.623-15.616 40.95 7e-3 56.569s40.95 15.616 56.569-7e-3c15.616-15.621 15.616-40.942 0-56.562zm-11.312 45.264c-9.376 9.37-24.572 9.365-33.941-0.011-9.37-9.376-9.365-24.572 0.011-33.941 9.371-9.365 24.559-9.365 33.93 0 9.353 9.385 9.353 24.567 0 33.952z" fill="#3464dc"/>
		<path d="m491.31 11.312l-11.312-11.312-84.912 84.912c-132.23-56.753-285.2-33.599-394.71 59.744l10.448 12.12c103.11-87.911 246.66-110.94 372.09-59.688l-75.856 75.856c-20.119-4.771-40.724-7.187-61.4-7.2-70.043-0.222-137.26 27.592-186.67 77.24l11.312 11.312c58.468-58.415 142.2-83.855 223.28-67.84l-100.95 100.92c-20.45 7.53-39.026 19.403-54.448 34.8l9.824 9.824-148 148 11.312 11.312 190.06-190.06c49.13-16.977 103.64-4.464 140.45 32.24l11.312-11.312c-34.128-34.067-82.419-49.881-130.09-42.6l88.8-88.8c41.291 11.326 78.917 33.219 109.17 63.52l11.312-11.312c-30.007-30.123-66.891-52.494-107.47-65.184l73.856-73.856c29.581 13.767 57.118 31.554 81.832 52.856l10.448-12.12c-24.376-20.977-51.382-38.686-80.336-52.68l80.656-80.688z" fill="#3464dc"/>
</svg>